<?xml version="1.0" encoding="UTF-8"?><svg xmlns="http://www.w3.org/2000/svg" width="40cm" height="60cm"><script>
		    function changeColor(evt) {
		      	var rect = evt.target;
		      	var currentFill = rect.getAttribute("fill");
		      	if (currentFill == "#4d79ff")
		        	rect.setAttribute("fill", "#cc0099");
		      	else
		        	rect.setAttribute("fill", "#4d79ff");
		   		}


			function something(evt) {
    			var pom = evt.target;
    			var currentSize = pom.getAttribute("font-size");
    			setInterval(function() {
    				pom.setAttribute("font-size", getRandomInt(10,50));
    			}, 100);
         		}
	  		
            </script><style type="text/css">
                @import url('https://fonts.googleapis.com/css?family=Montserrat&amp;subset=latin-ext');
                svg{ font-family: 'Montserrat', sans-serif;}

                .text {
                font-weight: 700;
                font-size: 30;
                fill: #993399;
                }
                .text:hover,
                .text:focus {
                fill: #ff6600;
                }


                .label {
                font-size: 15px;
                fill: black;
                }

                .circe1{
                fill: #cc3399;
                stroke: #8f246b;
                }

            </style><text x="11cm" y="2cm" font-family="Arial" font-size="60" font-weight="700" fill="#33cc33">Alcohol Wholesale Report:</text><text x="2cm" y="4cm" font-family="Arial" font-size="35" text-decoration="underline" font-weight="700" fill="#33cc33">Element Sums:</text><text class="text" x="2cm" y="5cm" font-family="Arial" font-size="30" fill="blue"> Manufacturers Sum: 13</text><rect onclick="changeColor(evt)" x="12cm" y="4.5cm" rx="1" ry="1" height="0.5cm" width="0" fill="#4d79ff" stroke="black" stroke-width="1"><animate attributeType="XML" attributeName="width" from="0" to="130" dur="2s" fill="freeze"/></rect><text class="text" x="2cm" y="6cm" font-family="Arial" font-size="30" fill="blue"> Categories Sum: 7</text><rect onclick="changeColor(evt)" x="12cm" y="5.5cm" rx="1" ry="1" height="0.5cm" width="0" fill="#4d79ff" stroke="black" stroke-width="1"><animate attributeType="XML" attributeName="width" from="0" to="70" dur="2s" fill="freeze"/></rect><text class="text" x="2cm" y="7cm" font-family="Arial" font-size="30" fill="blue"> Units Sum: 3</text><rect onclick="changeColor(evt)" x="12cm" y="6.5cm" rx="1" ry="1" height="0.5cm" width="0" fill="#4d79ff" stroke="black" stroke-width="1"><animate attributeType="XML" attributeName="width" from="0" to="30" dur="2s" fill="freeze"/></rect><text class="text" x="2cm" y="8cm" font-family="Arial" font-size="30" fill="blue"> Products Sum: 30</text><rect onclick="changeColor(evt)" x="12cm" y="7.5cm" rx="1" ry="1" height="0.5cm" width="0" fill="#4d79ff" stroke="black" stroke-width="1"><animate attributeType="XML" attributeName="width" from="0" to="300" dur="2s" fill="freeze"/></rect><text x="2cm" y="10cm" font-family="Arial" font-size="35" text-decoration="underline" font-weight="700" fill="#33cc33">Alcochol Sums:</text><g><line x1="3cm" y1="10.9cm" x2="20cm" y2="10.9cm" style="stroke:rgb(255,0,0);stroke-width:2"/><line x1="3cm" y1="11.9cm" x2="20cm" y2="11.9cm" style="stroke:rgb(255,0,0);stroke-width:2"/><line x1="3cm" y1="12.9cm" x2="20cm" y2="12.9cm" style="stroke:rgb(255,0,0);stroke-width:2"/><line x1="3cm" y1="13.9cm" x2="20cm" y2="13.9cm" style="stroke:rgb(255,0,0);stroke-width:2"/><line x1="3cm" y1="14.9cm" x2="20cm" y2="14.9cm" style="stroke:rgb(255,0,0);stroke-width:2"/><line x1="3cm" y1="15.9cm" x2="20cm" y2="15.9cm" style="stroke:rgb(255,0,0);stroke-width:2"/><line x1="3cm" y1="16.9cm" x2="20cm" y2="16.9cm" style="stroke:rgb(255,0,0);stroke-width:2"/><line x1="3cm" y1="17.9cm" x2="20cm" y2="17.9cm" style="stroke:rgb(255,0,0);stroke-width:2"/></g><g class="lable"><text x="2cm" y="11cm">7</text><text x="2cm" y="12cm">6</text><text x="2cm" y="13cm">5</text><text x="2cm" y="14cm">4</text><text x="2cm" y="15cm">3</text><text x="2cm" y="16cm">2</text><text x="2cm" y="17cm">1</text><text x="2cm" y="18cm">0</text></g><g class="lable"><text x="3cm" y="19cm">Vodka</text><text x="5cm" y="19cm">White-Wine</text><text x="8cm" y="19cm">Red-Wine</text><text x="10.8cm" y="19cm">Cognac</text><text x="13cm" y="19cm">Whisky</text><text x="15cm" y="19cm">Beer</text><text x="17cm" y="19cm">Absinth</text></g><g class="circe1"><circle cx="3.5cm" cy="10.9cm" r="6"/><circle cx="6.5cm" cy="17.9cm" r="6"/><circle cx="9cm" cy="12.9cm" r="6"/><circle cx="11.6cm" cy="12.9cm" r="6"/><circle cx="14cm" cy="11.9cm" r="6"/><circle cx="15.5cm" cy="10.9cm" r="6"/><circle cx="17.8cm" cy="17.9cm" r="6"/></g></svg>